<svg width="24" height="24" viewBox="0 0 24 24" fill="none" xmlns="http://www.w3.org/2000/svg">
<g clip-path="url(#clip0_2652_10152)">
<path d="M5.625 12.2441C5.625 12.0579 5.65723 11.8861 5.72168 11.7285C5.79329 11.571 5.90072 11.4206 6.04395 11.2773L14.4121 3.0918C14.6556 2.85547 14.9492 2.7373 15.293 2.7373C15.5293 2.7373 15.7406 2.7946 15.9268 2.90918C16.1201 3.0166 16.2741 3.16341 16.3887 3.34961C16.5033 3.53581 16.5605 3.74707 16.5605 3.9834C16.5605 4.31999 16.4281 4.62077 16.1631 4.88574L8.62207 12.2441L16.1631 19.6025C16.4281 19.8675 16.5605 20.1719 16.5605 20.5156C16.5605 20.7448 16.5033 20.9525 16.3887 21.1387C16.2741 21.332 16.1201 21.4824 15.9268 21.5898C15.7406 21.7044 15.5293 21.7617 15.293 21.7617C14.9492 21.7617 14.6556 21.64 14.4121 21.3965L6.04395 13.2109C5.90072 13.0677 5.79329 12.9173 5.72168 12.7598C5.65723 12.6022 5.625 12.4303 5.625 12.2441Z" fill="black"/>
</g>
<defs>
<clipPath id="clip0_2652_10152">
<rect width="24" height="24" fill="white"/>
</clipPath>
</defs>
</svg>
